<svg width="28" height="40" viewBox="0 0 28 40" fill="none" xmlns="http://www.w3.org/2000/svg">
<path d="M1.03662 6.92751C1.03662 5.19424 1.71942 3.53196 2.93481 2.30636C4.15021 1.08075 5.79863 0.392212 7.51746 0.392212H20.4811C22.2001 0.392212 23.8488 1.08085 25.0644 2.30664C26.28 3.53243 26.9629 5.19496 26.9629 6.92849C26.9629 8.66201 26.28 10.3245 25.0644 11.5503C23.8488 12.7761 22.2001 13.4648 20.4811 13.4648H14.0002V33.0726C13.9998 34.365 13.6195 35.6283 12.9072 36.7027C12.1949 37.7771 11.1827 38.6144 9.99861 39.1088C8.81447 39.6032 7.51155 39.7325 6.25457 39.4803C4.9976 39.228 3.843 38.6057 2.93676 37.6918C2.03051 36.7779 1.41331 35.6136 1.16319 34.3461C0.913062 33.0786 1.04124 31.7647 1.53152 30.5706C2.0218 29.3765 2.85216 28.3558 3.91763 27.6376C4.9831 26.9193 6.23583 26.5357 7.51746 26.5353C5.79863 26.5353 4.15021 25.8468 2.93481 24.6212C1.71942 23.3956 1.03662 21.7333 1.03662 20.0001C1.03662 18.2668 1.71942 16.6045 2.93481 15.3789C4.15021 14.1533 5.79863 13.4648 7.51746 13.4648C6.66622 13.4648 5.82332 13.2957 5.0369 12.9671C4.25048 12.6386 3.53595 12.157 2.93413 11.5499C2.3323 10.9429 1.85496 10.2222 1.52939 9.42906C1.20381 8.63593 1.03637 7.7859 1.03662 6.92751ZM14.0002 20.0001C14.0002 21.7333 14.683 23.3956 15.8984 24.6212C17.1138 25.8468 18.7622 26.5353 20.4811 26.5353C22.1999 26.5353 23.8483 25.8468 25.0637 24.6212C26.2791 23.3956 26.9619 21.7333 26.9619 20.0001C26.9619 18.2668 26.2791 16.6045 25.0637 15.3789C23.8483 14.1533 22.1999 13.4648 20.4811 13.4648C18.7622 13.4648 17.1138 14.1533 15.8984 15.3789C14.683 16.6045 14.0002 18.2668 14.0002 20.0001Z" fill="#F7F7F7"/>
</svg>
