<svg width="40" height="40" viewBox="0 0 40 40" fill="none" xmlns="http://www.w3.org/2000/svg">
<g clip-path="url(#clip0_739_2468)">
<path d="M19.9999 0.893921C17.425 0.893921 14.8753 1.4034 12.4963 2.39326C10.1174 3.38313 7.95585 4.834 6.1351 6.66303C2.45791 10.3569 0.39209 15.3669 0.39209 20.5909C0.39209 29.2969 6.01954 36.6833 13.8039 39.303C14.7842 39.4606 15.098 38.85 15.098 38.3182V34.9894C9.6666 36.1712 8.50974 32.35 8.50974 32.35C7.60778 30.0651 6.33327 29.4545 6.33327 29.4545C4.54895 28.2333 6.47052 28.2727 6.47052 28.2727C8.43131 28.4106 9.47052 30.3015 9.47052 30.3015C11.1764 33.2954 14.0588 32.4091 15.1764 31.9363C15.3529 30.656 15.8627 29.7894 16.4117 29.2969C12.0588 28.8045 7.49013 27.1106 7.49013 19.606C7.49013 17.4197 8.23523 15.6666 9.50974 14.2682C9.31366 13.7757 8.62739 11.7273 9.70582 9.06816C9.70582 9.06816 11.3529 8.53635 15.098 11.0773C16.647 10.6439 18.3333 10.4273 19.9999 10.4273C21.6666 10.4273 23.3529 10.6439 24.9019 11.0773C28.647 8.53635 30.2941 9.06816 30.2941 9.06816C31.3725 11.7273 30.6862 13.7757 30.4901 14.2682C31.7646 15.6666 32.5097 17.4197 32.5097 19.606C32.5097 27.1303 27.9215 28.7848 23.549 29.2773C24.2548 29.8879 24.9019 31.0894 24.9019 32.9212V38.3182C24.9019 38.85 25.2156 39.4803 26.2156 39.303C33.9999 36.6636 39.6078 29.2969 39.6078 20.5909C39.6078 18.0042 39.1006 15.4429 38.1152 13.0532C37.1298 10.6634 35.6855 8.49206 33.8648 6.66303C32.044 4.834 29.8825 3.38313 27.5035 2.39326C25.1246 1.4034 22.5749 0.893921 19.9999 0.893921Z" fill="#F7F7F7"/>
</g>
<defs>
<clipPath id="clip0_739_2468">
<rect width="40" height="39" fill="white" transform="translate(0 0.5)"/>
</clipPath>
</defs>
</svg>
