<svg width="118" height="125" viewBox="0 0 118 125" fill="none" xmlns="http://www.w3.org/2000/svg">
<rect x="14" y="13" width="82" height="82" rx="10" fill="#C8EF9B" fill-opacity="0.3"/>
<g clip-path="url(#clip0_2008_859)">
<path d="M93.43 71.9349V61V71.9349ZM93.43 92.2425V82.8697V92.2425ZM93.43 123.485C112.097 123.485 116.763 109.395 116.763 92.2425C116.763 75.0904 112.097 61 93.43 61C74.7633 61 70.0967 75.0904 70.0967 92.2425C70.0967 109.395 74.7633 123.485 93.43 123.485Z" fill="#EFF4EF"/>
<path d="M93.43 71.9349V61M93.43 61C112.097 61 116.763 75.0904 116.763 92.2425C116.763 109.395 112.097 123.485 93.43 123.485C74.7633 123.485 70.0967 109.395 70.0967 92.2425C70.0967 75.0904 74.7633 61 93.43 61ZM93.43 92.2425V82.8697" stroke="black" stroke-width="2" stroke-linecap="round" stroke-linejoin="round"/>
<path d="M98.098 76.6212C98.098 75.1653 98.098 74.4374 97.8615 73.8625C97.5451 73.0985 96.9398 72.4918 96.1784 72.1754C95.606 71.9349 94.8811 71.9349 93.4313 71.9349C91.9815 71.9349 91.2566 71.9349 90.6842 72.1723C89.9234 72.4901 89.3192 73.0979 89.0042 73.8625C88.7646 74.4374 88.7646 75.1653 88.7646 76.6212V78.1834C88.7646 79.6393 88.7646 80.3672 89.0011 80.9421C89.3175 81.7061 89.9228 82.3128 90.6842 82.6292C91.2566 82.8697 91.9815 82.8697 93.4313 82.8697C94.8811 82.8697 95.606 82.8697 96.1784 82.6323C96.9392 82.3145 97.5434 81.7067 97.8584 80.9421C98.098 80.3672 98.098 79.6393 98.098 78.1834V76.6212ZM70.098 92.2425H116.765H70.098ZM66.9869 64.646L65.8015 61L66.9869 64.646ZM63.966 72.1442L60.7646 73.497L63.966 72.1442Z" fill="#EFF4EF"/>
<path d="M70.098 92.2425H116.765M66.9869 64.646L65.8015 61M63.966 72.1442L60.7646 73.497M98.098 76.6212C98.098 75.1653 98.098 74.4374 97.8615 73.8625C97.5451 73.0985 96.9398 72.4918 96.1784 72.1754C95.606 71.9349 94.8811 71.9349 93.4313 71.9349C91.9815 71.9349 91.2566 71.9349 90.6842 72.1723C89.9234 72.4901 89.3192 73.0979 89.0042 73.8625C88.7646 74.4374 88.7646 75.1653 88.7646 76.6212V78.1834C88.7646 79.6393 88.7646 80.3672 89.0011 80.9421C89.3175 81.7061 89.9228 82.3128 90.6842 82.6292C91.2566 82.8697 91.9815 82.8697 93.4313 82.8697C94.8811 82.8697 95.606 82.8697 96.1784 82.6323C96.9392 82.3145 97.5434 81.7067 97.8584 80.9421C98.098 80.3672 98.098 79.6393 98.098 78.1834V76.6212Z" stroke="black" stroke-width="2" stroke-linecap="round" stroke-linejoin="round"/>
</g>
<g clip-path="url(#clip1_2008_859)">
<path d="M101.622 1.91406H77.3776C75.4647 1.91406 73.9141 3.46474 73.9141 5.3776V29.6224C73.9141 31.5353 75.4647 33.0859 77.3776 33.0859H101.622C103.535 33.0859 105.086 31.5353 105.086 29.6224V5.3776C105.086 3.46474 103.535 1.91406 101.622 1.91406Z" stroke="black" stroke-width="2" stroke-linecap="round" stroke-linejoin="round"/>
<path d="M94.6955 15.7683C96.6083 15.7683 98.159 14.2176 98.159 12.3047C98.159 10.3919 96.6083 8.84119 94.6955 8.84119C92.7826 8.84119 91.2319 10.3919 91.2319 12.3047C91.2319 14.2176 92.7826 15.7683 94.6955 15.7683Z" stroke="black" stroke-width="2" stroke-linecap="round" stroke-linejoin="round"/>
<path d="M73.9141 27.8906L84.3047 17.5L99.8906 33.0859" stroke="black" stroke-width="2" stroke-linecap="round" stroke-linejoin="round"/>
</g>
<g clip-path="url(#clip2_2008_859)">
<path d="M12 87.75C10.0716 87.75 8.18657 87.1782 6.58319 86.1068C4.97982 85.0355 3.73013 83.5127 2.99218 81.7312C2.25422 79.9496 2.06114 77.9892 2.43735 76.0979C2.81355 74.2066 3.74215 72.4693 5.10571 71.1057C6.46927 69.7422 8.20656 68.8136 10.0979 68.4373C11.9892 68.0611 13.9496 68.2542 15.7312 68.9922C17.5127 69.7301 19.0355 70.9798 20.1068 72.5832C21.1782 74.1866 21.75 76.0716 21.75 78H24C24 75.6266 23.2962 73.3066 21.9776 71.3332C20.6591 69.3598 18.7849 67.8217 16.5922 66.9135C14.3995 66.0052 11.9867 65.7676 9.65892 66.2306C7.33115 66.6936 5.19295 67.8365 3.51472 69.5147C1.83649 71.193 0.693604 73.3311 0.230582 75.6589C-0.232441 77.9867 0.00519937 80.3995 0.913451 82.5922C1.8217 84.7849 3.35977 86.6591 5.33316 87.9776C7.30655 89.2962 9.62663 90 12 90V87.75ZM19.125 79.5C17.6332 79.5 16.2024 80.0926 15.1475 81.1475C14.0926 82.2024 13.5 83.6332 13.5 85.125V96.375C13.5 97.8668 14.0926 99.2976 15.1475 100.352C16.2024 101.407 17.6332 102 19.125 102H30.375C31.8668 102 33.2976 101.407 34.3525 100.352C35.4074 99.2976 36 97.8668 36 96.375V85.125C36 83.6332 35.4074 82.2024 34.3525 81.1475C33.2976 80.0926 31.8668 79.5 30.375 79.5H19.125ZM15.75 85.125C15.75 84.2299 16.1056 83.3715 16.7385 82.7385C17.3715 82.1056 18.2299 81.75 19.125 81.75H30.375C31.2701 81.75 32.1285 82.1056 32.7615 82.7385C33.3944 83.3715 33.75 84.2299 33.75 85.125V96.375C33.75 97.2701 33.3944 98.1286 32.7615 98.7615C32.1285 99.3944 31.2701 99.75 30.375 99.75H19.125C18.2299 99.75 17.3715 99.3944 16.7385 98.7615C16.1056 98.1286 15.75 97.2701 15.75 96.375V85.125Z" fill="black"/>
</g>
<g clip-path="url(#clip3_2008_859)">
<path d="M13.0537 2C11.5143 2 10.2286 2 9.21029 2.13128C8.13371 2.26913 7.16171 2.57436 6.38171 3.32103C5.6 4.06933 5.28114 4.99979 5.13714 6.02872C5 7.00513 5 8.2359 5 9.70954V11.3538C5 11.6803 5.13546 11.9933 5.37658 12.2241C5.6177 12.4549 5.94472 12.5846 6.28571 12.5846C6.62671 12.5846 6.95373 12.4549 7.19485 12.2241C7.43597 11.9933 7.57143 11.6803 7.57143 11.3538V9.79487C7.57143 8.21292 7.57486 7.14954 7.68629 6.35692C7.79257 5.60041 7.976 5.27549 8.20057 5.06215C8.42514 4.84882 8.76114 4.67323 9.55143 4.56985C10.3794 4.46646 11.4903 4.46154 13.1429 4.46154H18.7143V31.5385H11.4286C11.0876 31.5385 10.7606 31.6681 10.5194 31.8989C10.2783 32.1298 10.1429 32.4428 10.1429 32.7692C10.1429 33.0957 10.2783 33.4087 10.5194 33.6395C10.7606 33.8703 11.0876 34 11.4286 34H28.5714C28.9124 34 29.2394 33.8703 29.4806 33.6395C29.7217 33.4087 29.8571 33.0957 29.8571 32.7692C29.8571 32.4428 29.7217 32.1298 29.4806 31.8989C29.2394 31.6681 28.9124 31.5385 28.5714 31.5385H21.2857V4.46154H26.8571C28.5097 4.46154 29.6206 4.46482 30.4486 4.57149C31.2389 4.67323 31.5783 4.84882 31.8011 5.0638C32.024 5.27877 32.2074 5.60041 32.3154 6.35692C32.4251 7.14954 32.4286 8.21292 32.4286 9.79487V11.3538C32.4286 11.6803 32.564 11.9933 32.8051 12.2241C33.0463 12.4549 33.3733 12.5846 33.7143 12.5846C34.0553 12.5846 34.3823 12.4549 34.6234 12.2241C34.8645 11.9933 35 11.6803 35 11.3538V9.70954C35 8.2359 35 7.00513 34.8629 6.03036C34.7189 4.99979 34.4 4.06933 33.6183 3.32267C32.8383 2.57436 31.8663 2.26913 30.7897 2.13128C29.7714 2 28.4874 2 26.9463 2H13.0537Z" fill="black"/>
</g>
<defs>
<clipPath id="clip0_2008_859">
<rect width="59" height="65" fill="white" transform="translate(59 60)"/>
</clipPath>
<clipPath id="clip1_2008_859">
<rect width="35" height="35" fill="white" transform="translate(72)"/>
</clipPath>
<clipPath id="clip2_2008_859">
<rect width="36" height="36" fill="white" transform="translate(0 66)"/>
</clipPath>
<clipPath id="clip3_2008_859">
<rect width="30" height="32" fill="white" transform="translate(5 2)"/>
</clipPath>
</defs>
</svg>
