<svg width="146" height="135" viewBox="0 0 146 135" fill="none" xmlns="http://www.w3.org/2000/svg">
<path d="M77.5876 94.5576C75.1903 97.4015 70.8097 97.4015 68.4124 94.5576L18.0974 34.867C14.8085 30.9654 17.5821 25 22.685 25L123.315 25C128.418 25 131.191 30.9654 127.903 34.867L77.5876 94.5576Z" fill="#C8EF9B" fill-opacity="0.3"/>
<path d="M38.8574 27.5938V21.9688C38.8571 21.6891 38.7441 21.421 38.5431 21.2234L28.5431 11.3797C28.3423 11.1818 28.07 11.0706 27.7859 11.0703H10.6431C9.98003 11.0703 9.34414 11.3296 8.8753 11.7911C8.40646 12.2526 8.14307 12.8786 8.14307 13.5312V27.5938C8.14307 27.8735 8.25595 28.1417 8.45688 28.3395C8.65781 28.5373 8.93033 28.6484 9.2145 28.6484C9.49866 28.6484 9.77118 28.5373 9.97211 28.3395C10.173 28.1417 10.2859 27.8735 10.2859 27.5938V13.5312C10.2859 13.438 10.3236 13.3486 10.3905 13.2827C10.4575 13.2167 10.5483 13.1797 10.6431 13.1797H26.7145V21.9688C26.7145 22.2485 26.8274 22.5167 27.0283 22.7145C27.2292 22.9123 27.5018 23.0234 27.7859 23.0234H36.7145V27.5938C36.7145 27.8735 36.8274 28.1417 37.0283 28.3395C37.2292 28.5373 37.5018 28.6484 37.7859 28.6484C38.0701 28.6484 38.3426 28.5373 38.5435 28.3395C38.7445 28.1417 38.8574 27.8735 38.8574 27.5938ZM28.8574 14.6703L35.2002 20.9141H28.8574V14.6703Z" fill="black"/>
<path d="M7.806 43C7.22733 43 6.938 42.7107 6.938 42.132V34.068C6.938 33.4893 7.22733 33.2 7.806 33.2H7.89C8.46867 33.2 8.758 33.4893 8.758 34.068V36.994H12.944V34.068C12.944 33.4893 13.2333 33.2 13.812 33.2H13.91C14.4887 33.2 14.778 33.4893 14.778 34.068V42.132C14.778 42.7107 14.4887 43 13.91 43H13.812C13.2333 43 12.944 42.7107 12.944 42.132V38.674H8.758V42.132C8.758 42.7107 8.46867 43 7.89 43H7.806ZM19.165 43C18.549 43 18.241 42.692 18.241 42.076V34.88H16.281C15.665 34.88 15.357 34.6 15.357 34.04C15.357 33.48 15.665 33.2 16.281 33.2H22.021C22.637 33.2 22.945 33.48 22.945 34.04C22.945 34.6 22.637 34.88 22.021 34.88H20.075V42.076C20.075 42.692 19.7717 43 19.165 43ZM24.4542 43C23.8382 43 23.5302 42.692 23.5302 42.076V34.124C23.5302 33.7693 23.6235 33.5267 23.8102 33.396C23.9969 33.2653 24.2675 33.2 24.6222 33.2C25.1075 33.2 25.4715 33.41 25.7142 33.83L28.0102 37.82L30.2782 33.844C30.4275 33.5827 30.5955 33.41 30.7822 33.326C30.9782 33.242 31.2349 33.2 31.5522 33.2C32.1682 33.2 32.4762 33.508 32.4762 34.124V42.076C32.4762 42.692 32.1682 43 31.5522 43C30.9362 43 30.6282 42.692 30.6282 42.076V36.35L28.8922 39.514C28.6682 39.9433 28.3695 40.158 27.9962 40.158C27.6229 40.158 27.3242 39.9433 27.1002 39.514L25.3642 36.35V42.076C25.3642 42.692 25.0609 43 24.4542 43ZM34.5686 43C33.9526 43 33.6446 42.692 33.6446 42.076V34.124C33.6446 33.508 33.948 33.2 34.5546 33.2C35.1613 33.2 35.4646 33.508 35.4646 34.124V41.32H39.5666C40.1826 41.32 40.4906 41.6 40.4906 42.16C40.4906 42.72 40.1826 43 39.5666 43H34.5686Z" fill="black"/>
<path d="M88.8574 27.5938V21.9688C88.8571 21.6891 88.7441 21.421 88.5431 21.2234L78.5431 11.3797C78.3423 11.1818 78.07 11.0706 77.7859 11.0703H60.6431C59.98 11.0703 59.3441 11.3296 58.8753 11.7911C58.4065 12.2526 58.1431 12.8786 58.1431 13.5312V27.5938C58.1431 27.8735 58.2559 28.1417 58.4569 28.3395C58.6578 28.5373 58.9303 28.6484 59.2145 28.6484C59.4987 28.6484 59.7712 28.5373 59.9721 28.3395C60.173 28.1417 60.2859 27.8735 60.2859 27.5938V13.5312C60.2859 13.438 60.3236 13.3486 60.3905 13.2827C60.4575 13.2167 60.5483 13.1797 60.6431 13.1797H76.7145V21.9688C76.7145 22.2485 76.8274 22.5167 77.0283 22.7145C77.2292 22.9123 77.5018 23.0234 77.7859 23.0234H86.7145V27.5938C86.7145 27.8735 86.8274 28.1417 87.0283 28.3395C87.2292 28.5373 87.5018 28.6484 87.7859 28.6484C88.0701 28.6484 88.3426 28.5373 88.5435 28.3395C88.7445 28.1417 88.8574 27.8735 88.8574 27.5938ZM78.8574 14.6703L85.2002 20.9141H78.8574V14.6703Z" fill="black"/>
<path d="M65.082 43.238C64.1953 43.238 63.402 43.028 62.702 42.608C62.002 42.188 61.4513 41.5953 61.05 40.83C60.658 40.0553 60.462 39.1453 60.462 38.1C60.462 37.0453 60.658 36.1353 61.05 35.37C61.4513 34.5953 62.002 33.998 62.702 33.578C63.402 33.1487 64.1953 32.934 65.082 32.934C65.7447 32.934 66.3513 33.0507 66.902 33.284C67.4527 33.5173 67.9333 33.8487 68.344 34.278C68.5587 34.5113 68.6287 34.7447 68.554 34.978C68.4793 35.2113 68.3347 35.3933 68.12 35.524L68.05 35.566C67.91 35.65 67.714 35.6827 67.462 35.664C67.2193 35.6453 66.9907 35.538 66.776 35.342C66.3093 34.922 65.7447 34.712 65.082 34.712C64.5313 34.712 64.0507 34.8567 63.64 35.146C63.2387 35.426 62.926 35.818 62.702 36.322C62.478 36.826 62.366 37.4187 62.366 38.1C62.366 38.772 62.478 39.36 62.702 39.864C62.926 40.368 63.2387 40.7647 63.64 41.054C64.0507 41.334 64.5313 41.474 65.082 41.474C65.7447 41.474 66.3093 41.264 66.776 40.844C66.9907 40.648 67.2053 40.536 67.42 40.508C67.644 40.4707 67.854 40.5033 68.05 40.606L68.078 40.62C68.2927 40.732 68.4467 40.914 68.54 41.166C68.6333 41.4087 68.5773 41.642 68.372 41.866C67.9613 42.3047 67.476 42.6453 66.916 42.888C66.356 43.1213 65.7447 43.238 65.082 43.238ZM73.9843 43.21C73.2843 43.21 72.6309 43.0887 72.0243 42.846C71.4176 42.594 70.8996 42.174 70.4703 41.586C70.2929 41.334 70.2323 41.1007 70.2883 40.886C70.3536 40.6713 70.5123 40.494 70.7643 40.354C71.0069 40.214 71.2263 40.1767 71.4223 40.242C71.6276 40.298 71.8283 40.4333 72.0243 40.648C72.2576 40.9093 72.5376 41.1147 72.8643 41.264C73.1909 41.404 73.5876 41.474 74.0543 41.474C74.6983 41.474 75.1276 41.3667 75.3423 41.152C75.5569 40.928 75.6643 40.634 75.6643 40.27C75.6643 40.0367 75.6083 39.836 75.4963 39.668C75.3936 39.5 75.1603 39.3413 74.7963 39.192C74.4416 39.0333 73.8909 38.8653 73.1443 38.688C72.2389 38.4733 71.5716 38.128 71.1423 37.652C70.7129 37.176 70.4983 36.5833 70.4983 35.874C70.4983 35.286 70.6383 34.7727 70.9183 34.334C71.1983 33.8953 71.5903 33.5547 72.0943 33.312C72.6076 33.06 73.2096 32.934 73.9003 32.934C74.6283 32.934 75.2583 33.0647 75.7903 33.326C76.3316 33.5873 76.7749 33.914 77.1202 34.306C77.3069 34.53 77.3769 34.754 77.3303 34.978C77.2836 35.1927 77.1436 35.3887 76.9103 35.566C76.6769 35.7433 76.4576 35.8133 76.2523 35.776C76.0469 35.7293 75.8416 35.6033 75.6363 35.398C75.4309 35.1927 75.1883 35.02 74.9083 34.88C74.6283 34.74 74.2829 34.67 73.8723 34.67C73.4336 34.67 73.0743 34.7633 72.7943 34.95C72.5236 35.1273 72.3883 35.4073 72.3883 35.79C72.3883 35.9393 72.4256 36.0933 72.5003 36.252C72.5843 36.4013 72.7709 36.5507 73.0603 36.7C73.3589 36.8493 73.8303 37.0033 74.4743 37.162C75.5663 37.4233 76.3549 37.8153 76.8403 38.338C77.3349 38.8513 77.5823 39.486 77.5823 40.242C77.5823 41.2033 77.2556 41.9407 76.6022 42.454C75.9583 42.958 75.0856 43.21 73.9843 43.21ZM82.7753 43.21C82.0753 43.21 81.4219 43.0887 80.8153 42.846C80.2086 42.594 79.6906 42.174 79.2613 41.586C79.0839 41.334 79.0233 41.1007 79.0793 40.886C79.1446 40.6713 79.3033 40.494 79.5553 40.354C79.7979 40.214 80.0173 40.1767 80.2133 40.242C80.4186 40.298 80.6193 40.4333 80.8153 40.648C81.0486 40.9093 81.3286 41.1147 81.6553 41.264C81.9819 41.404 82.3786 41.474 82.8453 41.474C83.4893 41.474 83.9186 41.3667 84.1333 41.152C84.3479 40.928 84.4553 40.634 84.4553 40.27C84.4553 40.0367 84.3993 39.836 84.2873 39.668C84.1846 39.5 83.9513 39.3413 83.5873 39.192C83.2326 39.0333 82.6819 38.8653 81.9353 38.688C81.0299 38.4733 80.3626 38.128 79.9333 37.652C79.5039 37.176 79.2893 36.5833 79.2893 35.874C79.2893 35.286 79.4293 34.7727 79.7093 34.334C79.9893 33.8953 80.3813 33.5547 80.8853 33.312C81.3986 33.06 82.0006 32.934 82.6913 32.934C83.4193 32.934 84.0493 33.0647 84.5813 33.326C85.1226 33.5873 85.5659 33.914 85.9113 34.306C86.0979 34.53 86.1679 34.754 86.1213 34.978C86.0746 35.1927 85.9346 35.3887 85.7013 35.566C85.4679 35.7433 85.2486 35.8133 85.0433 35.776C84.8379 35.7293 84.6326 35.6033 84.4273 35.398C84.2219 35.1927 83.9793 35.02 83.6993 34.88C83.4193 34.74 83.0739 34.67 82.6633 34.67C82.2246 34.67 81.8653 34.7633 81.5853 34.95C81.3146 35.1273 81.1793 35.4073 81.1793 35.79C81.1793 35.9393 81.2166 36.0933 81.2913 36.252C81.3753 36.4013 81.5619 36.5507 81.8513 36.7C82.1499 36.8493 82.6213 37.0033 83.2653 37.162C84.3573 37.4233 85.1459 37.8153 85.6313 38.338C86.1259 38.8513 86.3733 39.486 86.3733 40.242C86.3733 41.2033 86.0466 41.9407 85.3933 42.454C84.7493 42.958 83.8766 43.21 82.7753 43.21Z" fill="black"/>
<path d="M138.857 28.5938V22.9688C138.857 22.6891 138.744 22.421 138.543 22.2234L128.543 12.3797C128.342 12.1818 128.07 12.0706 127.786 12.0703H110.643C109.98 12.0703 109.344 12.3296 108.875 12.7911C108.406 13.2526 108.143 13.8786 108.143 14.5312V28.5938C108.143 28.8735 108.256 29.1417 108.457 29.3395C108.658 29.5373 108.93 29.6484 109.214 29.6484C109.499 29.6484 109.771 29.5373 109.972 29.3395C110.173 29.1417 110.286 28.8735 110.286 28.5938V14.5312C110.286 14.438 110.324 14.3486 110.391 14.2827C110.458 14.2167 110.548 14.1797 110.643 14.1797H126.714V22.9688C126.714 23.2485 126.827 23.5167 127.028 23.7145C127.229 23.9123 127.502 24.0234 127.786 24.0234H136.714V28.5938C136.714 28.8735 136.827 29.1417 137.028 29.3395C137.229 29.5373 137.502 29.6484 137.786 29.6484C138.07 29.6484 138.343 29.5373 138.544 29.3395C138.744 29.1417 138.857 28.8735 138.857 28.5938ZM128.857 15.6703L135.2 21.9141H128.857V15.6703Z" fill="black"/>
<path d="M117.944 44.238C116.992 44.238 116.264 44.0233 115.76 43.594C115.265 43.1553 114.953 42.5673 114.822 41.83C114.766 41.5313 114.817 41.298 114.976 41.13C115.135 40.9527 115.377 40.864 115.704 40.864C115.984 40.864 116.194 40.9387 116.334 41.088C116.474 41.228 116.591 41.438 116.684 41.718C116.88 42.2127 117.3 42.46 117.944 42.46C118.401 42.46 118.742 42.334 118.966 42.082C119.199 41.83 119.316 41.424 119.316 40.864V35.124C119.316 34.508 119.624 34.2 120.24 34.2C120.847 34.2 121.15 34.508 121.15 35.124V40.864C121.15 41.5267 121.043 42.1147 120.828 42.628C120.613 43.132 120.268 43.5287 119.792 43.818C119.325 44.098 118.709 44.238 117.944 44.238ZM127.383 44.21C126.683 44.21 126.03 44.0887 125.423 43.846C124.816 43.594 124.298 43.174 123.869 42.586C123.692 42.334 123.631 42.1007 123.687 41.886C123.752 41.6713 123.911 41.494 124.163 41.354C124.406 41.214 124.625 41.1767 124.821 41.242C125.026 41.298 125.227 41.4333 125.423 41.648C125.656 41.9093 125.936 42.1147 126.263 42.264C126.59 42.404 126.986 42.474 127.453 42.474C128.097 42.474 128.526 42.3667 128.741 42.152C128.956 41.928 129.063 41.634 129.063 41.27C129.063 41.0367 129.007 40.836 128.895 40.668C128.792 40.5 128.559 40.3413 128.195 40.192C127.84 40.0333 127.29 39.8653 126.543 39.688C125.638 39.4733 124.97 39.128 124.541 38.652C124.112 38.176 123.897 37.5833 123.897 36.874C123.897 36.286 124.037 35.7727 124.317 35.334C124.597 34.8953 124.989 34.5547 125.493 34.312C126.006 34.06 126.608 33.934 127.299 33.934C128.027 33.934 128.657 34.0647 129.189 34.326C129.73 34.5873 130.174 34.914 130.519 35.306C130.706 35.53 130.776 35.754 130.729 35.978C130.682 36.1927 130.542 36.3887 130.309 36.566C130.076 36.7433 129.856 36.8133 129.651 36.776C129.446 36.7293 129.24 36.6033 129.035 36.398C128.83 36.1927 128.587 36.02 128.307 35.88C128.027 35.74 127.682 35.67 127.271 35.67C126.832 35.67 126.473 35.7633 126.193 35.95C125.922 36.1273 125.787 36.4073 125.787 36.79C125.787 36.9393 125.824 37.0933 125.899 37.252C125.983 37.4013 126.17 37.5507 126.459 37.7C126.758 37.8493 127.229 38.0033 127.873 38.162C128.965 38.4233 129.754 38.8153 130.239 39.338C130.734 39.8513 130.981 40.486 130.981 41.242C130.981 42.2033 130.654 42.9407 130.001 43.454C129.357 43.958 128.484 44.21 127.383 44.21Z" fill="black"/>
<g clip-path="url(#clip0_842_2722)">
<path d="M79.5863 71.3H67.1575C56.9658 71.3 51.8731 71.3 48.2625 73.8293C46.9266 74.7648 45.7646 75.9268 44.8291 77.2628C42.2998 80.8703 42.2998 85.9661 42.2998 96.1577C42.2998 106.349 42.2998 111.442 44.8291 115.053C45.7646 116.389 46.9266 117.551 48.2625 118.486C51.87 121.015 56.9658 121.015 67.1575 121.015H79.5863C89.7779 121.015 94.8706 121.015 98.4812 118.486C99.8172 117.551 100.979 116.389 101.915 115.053C104.444 111.445 104.444 106.349 104.444 96.1577C104.444 85.9661 104.444 80.8734 101.915 77.2628C100.979 75.9268 99.8172 74.7648 98.4812 73.8293C94.8737 71.3 89.7779 71.3 79.5863 71.3Z" fill="#EFF4EF" stroke="black" stroke-width="2" stroke-linecap="round" stroke-linejoin="round"/>
<path d="M85.8006 89.9433L89.6131 93.2276C91.2133 94.6103 92.015 95.3001 92.015 96.1577C92.015 97.0153 91.2133 97.7051 89.6131 99.0878L85.8006 102.372M60.9429 89.9433L57.1304 93.2276C55.5302 94.6103 54.7285 95.3001 54.7285 96.1577C54.7285 97.0153 55.5302 97.7051 57.1304 99.0878L60.9429 102.372M76.479 86.8361L70.2646 105.479M81.6245 133.444L80.3195 132.142C78.8885 130.712 77.9444 128.867 77.6209 126.87C77.2974 124.873 77.611 122.824 78.5173 121.015M64.0501 133.444L65.3552 132.142C66.7861 130.712 67.7303 128.867 68.0538 126.87C68.3773 124.873 68.0636 122.824 67.1573 121.015M57.8357 133.444H88.9078" stroke="black" stroke-width="2" stroke-linecap="round" stroke-linejoin="round"/>
</g>
<defs>
<clipPath id="clip0_842_2722">
<rect width="65" height="65" fill="white" transform="translate(41 70)"/>
</clipPath>
</defs>
</svg>
