<svg width="40" height="40" viewBox="0 0 40 40" fill="none" xmlns="http://www.w3.org/2000/svg">
<g clip-path="url(#clip0_2027_338)">
<path d="M32.9156 0.500006H7.08438C6.1537 0.498772 5.23192 0.681173 4.37185 1.03676C3.51178 1.39234 2.73031 1.91413 2.07222 2.57222C1.41413 3.23031 0.892345 4.01178 0.536759 4.87185C0.181173 5.73192 -0.00122783 6.6537 6.22016e-06 7.58438V32.4156C-0.00122783 33.3463 0.181173 34.2681 0.536759 35.1282C0.892345 35.9882 1.41413 36.7697 2.07222 37.4278C2.73031 38.0859 3.51178 38.6077 4.37185 38.9633C5.23192 39.3188 6.1537 39.5012 7.08438 39.5H32.9156C33.8463 39.5012 34.7681 39.3188 35.6282 38.9633C36.4882 38.6077 37.2697 38.0859 37.9278 37.4278C38.5859 36.7697 39.1077 35.9882 39.4633 35.1282C39.8188 34.2681 40.0012 33.3463 40 32.4156V7.58438C40.0012 6.6537 39.8188 5.73192 39.4633 4.87185C39.1077 4.01178 38.5859 3.23031 37.9278 2.57222C37.2697 1.91413 36.4882 1.39234 35.6282 1.03676C34.7681 0.681173 33.8463 0.498772 32.9156 0.500006ZM24.45 28H20.9656C20.9069 28.0045 20.8484 27.9886 20.8001 27.955C20.7517 27.9214 20.7164 27.8722 20.7 27.8156L19.3344 23.8344H13.125L11.875 27.75C11.8613 27.8209 11.8218 27.8842 11.764 27.9275C11.7062 27.9708 11.6344 27.9911 11.5625 27.9844H8.43751C8.25626 27.9844 8.20626 27.8844 8.25626 27.6719L13.6 12.2344C13.65 12.0656 13.7 11.8844 13.7656 11.6844C13.834 11.327 13.8674 10.9638 13.8656 10.6C13.8609 10.558 13.8721 10.5158 13.8969 10.4817C13.9218 10.4475 13.9586 10.424 14 10.4156H18.3156C18.45 10.4156 18.5156 10.4656 18.5344 10.55L24.6156 27.7156C24.6656 27.9 24.6156 27.9844 24.45 27.9844V28ZM30.2 27.8125C30.2 27.9969 30.1344 28.0781 29.9844 28.0781H26.7156C26.6808 28.0808 26.6457 28.0756 26.6131 28.063C26.5805 28.0503 26.5511 28.0305 26.5271 28.0051C26.5032 27.9796 26.4852 27.9491 26.4746 27.9158C26.4639 27.8824 26.4609 27.8472 26.4656 27.8125V14.9656C26.4656 14.8 26.5344 14.7344 26.6844 14.7344H30C30.15 14.7344 30.2156 14.8156 30.2156 14.9656L30.2 27.8125ZM29.85 12.75C29.6535 12.9496 29.4166 13.105 29.1553 13.2058C28.8939 13.3066 28.614 13.3504 28.3344 13.3344C28.0606 13.3404 27.7883 13.2919 27.5334 13.1915C27.2786 13.0912 27.0462 12.9411 26.85 12.75C26.4664 12.3332 26.2631 11.7817 26.2844 11.2156C26.2727 10.941 26.3193 10.6671 26.4211 10.4118C26.5229 10.1565 26.6776 9.9256 26.875 9.73438C27.2744 9.35497 27.8054 9.14545 28.3563 9.15001C28.6362 9.13553 28.9161 9.18007 29.1778 9.28075C29.4394 9.38142 29.677 9.53597 29.875 9.73438C30.2433 10.1382 30.4405 10.6693 30.425 11.2156C30.4362 11.4968 30.3911 11.7774 30.2923 12.0408C30.1936 12.3043 30.0432 12.5454 29.85 12.75ZM18.3344 20.45H14.1C14.35 19.75 14.6 18.9656 14.8344 18.1156C15.0688 17.2656 15.35 16.45 15.6 15.65C15.8277 14.9442 16.0165 14.2265 16.1656 13.5H16.2C16.3156 13.9 16.4344 14.3344 16.5656 14.8C16.6969 15.2656 16.85 15.7656 17.0156 16.2844C17.1813 16.8031 17.3281 17.3 17.5 17.8156C17.6719 18.3313 17.8125 18.8 17.95 19.25C18.0875 19.7 18.2344 20.1 18.3344 20.45Z" fill="#F7F7F7"/>
</g>
<defs>
<clipPath id="clip0_2027_338">
<rect width="40" height="40" fill="white"/>
</clipPath>
</defs>
</svg>
