<svg width="40" height="40" viewBox="0 0 40 40" fill="none" xmlns="http://www.w3.org/2000/svg">
<g clip-path="url(#clip0_739_2475)">
<path d="M1.33906 0C1.33805 0.354971 1.19726 0.695257 0.947187 0.947187C0.695359 1.19749 0.35506 1.3385 0 1.33969L0 3.10531C0.35496 3.10573 0.695269 3.2469 0.946293 3.49786C1.19732 3.74883 1.33857 4.0891 1.33906 4.44406C1.33881 4.79919 1.19768 5.1397 0.946624 5.39087C0.695573 5.64204 0.355123 5.78334 0 5.78375L0 7.54938C0.355015 7.54979 0.69537 7.691 0.946403 7.94203C1.19744 8.19307 1.33865 8.53342 1.33906 8.88844C1.33881 9.24356 1.19768 9.58408 0.946624 9.83525C0.695573 10.0864 0.355123 10.2277 0 10.2281L0 11.9938C0.355231 11.9942 0.695776 12.1355 0.946845 12.3869C1.19791 12.6382 1.33898 12.9788 1.33906 13.3341C1.33873 13.6891 1.19756 14.0296 0.946514 14.2807C0.695471 14.5318 0.355069 14.673 0 14.6734L0 16.4391C0.355069 16.4395 0.695471 16.5807 0.946514 16.8318C1.19756 17.0829 1.33873 17.4234 1.33906 17.7784C1.33865 18.1335 1.19744 18.4738 0.946403 18.7248C0.69537 18.9759 0.355015 19.1171 0 19.1175V20.8831C0.355015 20.8835 0.69537 21.0248 0.946403 21.2758C1.19744 21.5268 1.33865 21.8672 1.33906 22.2222C1.33881 22.5773 1.19768 22.9178 0.946624 23.169C0.695573 23.4202 0.355123 23.5615 0 23.5619L0 25.3275C0.35496 25.3279 0.695269 25.4691 0.946293 25.72C1.19732 25.971 1.33857 26.3113 1.33906 26.6663C1.33881 27.0214 1.19768 27.3619 0.946624 27.6131C0.695573 27.8642 0.355123 28.0055 0 28.0059L0 29.7716C0.355069 29.772 0.695471 29.9132 0.946514 30.1643C1.19756 30.4154 1.33873 30.7559 1.33906 31.1109C1.33865 31.466 1.19744 31.8063 0.946403 32.0573C0.69537 32.3084 0.355015 32.4496 0 32.45L0 34.2156C0.355015 34.216 0.69537 34.3573 0.946403 34.6083C1.19744 34.8593 1.33865 35.1997 1.33906 35.5547C1.33881 35.9098 1.19768 36.2503 0.946624 36.5015C0.695573 36.7527 0.355123 36.894 0 36.8944L0 38.6609C0.3525 38.6609 0.697812 38.8037 0.947187 39.0534C1.19768 39.3048 1.33856 39.6451 1.33906 40H3.10469C3.1051 39.6448 3.24644 39.3043 3.49768 39.0533C3.74891 38.8022 4.08951 38.6611 4.44469 38.6609C4.7997 38.6614 5.14006 38.8026 5.39109 39.0536C5.64212 39.3046 5.78334 39.645 5.78375 40H7.54938C7.54979 39.645 7.691 39.3046 7.94203 39.0536C8.19307 38.8026 8.53342 38.6614 8.88844 38.6609C9.24356 38.6612 9.58408 38.8023 9.83525 39.0534C10.0864 39.3044 10.2277 39.6449 10.2281 40H11.9944C11.9948 39.645 12.136 39.3046 12.387 39.0536C12.6381 38.8026 12.9784 38.6614 13.3334 38.6609C13.6884 38.6614 14.0287 38.8027 14.2796 39.0537C14.5306 39.3047 14.6718 39.645 14.6722 40H16.4378C16.4382 39.6449 16.5795 39.3045 16.8306 39.0535C17.0817 38.8024 17.4221 38.6613 17.7772 38.6609C18.1322 38.6614 18.4726 38.8026 18.7236 39.0536C18.9746 39.3046 19.1158 39.645 19.1163 40H20.8825C20.8829 39.645 21.0241 39.3046 21.2752 39.0536C21.5262 38.8026 21.8665 38.6614 22.2216 38.6609C22.5766 38.6613 22.9171 38.8024 23.1682 39.0535C23.4193 39.3045 23.5605 39.6449 23.5609 40H25.3266C25.327 39.645 25.4682 39.3046 25.7192 39.0536C25.9703 38.8026 26.3106 38.6614 26.6656 38.6609C27.0207 38.6612 27.3613 38.8023 27.6124 39.0534C27.8636 39.3044 28.0049 39.6449 28.0053 40H29.7709C29.7714 39.6449 29.9126 39.3045 30.1637 39.0535C30.4148 38.8024 30.7552 38.6613 31.1103 38.6609C31.4653 38.6614 31.8057 38.8026 32.0567 39.0536C32.3078 39.3046 32.449 39.645 32.4494 40H34.215C34.2154 39.6449 34.3567 39.3044 34.6079 39.0534C34.859 38.8023 35.1996 38.6612 35.5547 38.6609C35.9098 38.6613 36.2502 38.8024 36.5013 39.0535C36.7524 39.3045 36.8936 39.6449 36.8941 40H38.6603C38.6611 39.6448 38.8024 39.3044 39.0534 39.0531C39.3048 38.8025 39.6451 38.6615 40 38.6609V36.8953C39.6448 36.8951 39.3043 36.7539 39.0531 36.5028C38.8019 36.2516 38.6606 35.9111 38.6603 35.5559C38.6607 35.2008 38.802 34.8604 39.0532 34.6093C39.3044 34.3583 39.6449 34.2171 40 34.2169V32.4513C39.6448 32.451 39.3042 32.3098 39.053 32.0586C38.8018 31.8074 38.6606 31.4668 38.6603 31.1116C38.6606 30.7563 38.8018 30.4157 39.053 30.1645C39.3042 29.9133 39.6448 29.7721 40 29.7719V28.0063C39.6449 28.006 39.3044 27.8649 39.0532 27.6138C38.802 27.3628 38.6607 27.0223 38.6603 26.6672C38.6607 26.3121 38.802 25.9716 39.0532 25.7206C39.3044 25.4695 39.6449 25.3284 40 25.3281V23.5625C39.6448 23.5623 39.3043 23.4211 39.0531 23.17C38.8019 22.9188 38.6606 22.5783 38.6603 22.2231C38.6608 21.8681 38.8021 21.5277 39.0533 21.2767C39.3045 21.0257 39.6449 20.8846 40 20.8844V19.1187C39.6448 19.1185 39.3042 18.9773 39.053 18.7261C38.8018 18.4749 38.6606 18.1343 38.6603 17.7791C38.6606 17.4239 38.8019 17.0834 39.0531 16.8322C39.3043 16.5811 39.6448 16.4399 40 16.4397V14.6741C39.6448 14.6738 39.3042 14.5326 39.053 14.2814C38.8018 14.0302 38.6606 13.6896 38.6603 13.3344C38.6606 12.9791 38.8018 12.6385 39.053 12.3873C39.3042 12.1362 39.6448 11.9949 40 11.9947V10.2291C39.6447 10.2288 39.3041 10.0875 39.0529 9.83629C38.8017 9.58504 38.6605 9.24435 38.6603 8.88906C38.6609 8.53405 38.8023 8.19376 39.0534 7.94284C39.3046 7.69193 39.645 7.55087 40 7.55063V5.78438C39.6449 5.78413 39.3044 5.64299 39.0532 5.39194C38.802 5.14088 38.6607 4.80044 38.6603 4.44531C38.6606 4.09014 38.8019 3.74961 39.0531 3.49849C39.3043 3.24737 39.6448 3.10619 40 3.10594V1.33969C39.6451 1.33842 39.3049 1.19741 39.0531 0.947187C38.8028 0.695359 38.6618 0.35506 38.6606 0L36.895 0C36.8948 0.355177 36.7536 0.69574 36.5025 0.946918C36.2513 1.19809 35.9108 1.33936 35.5556 1.33969C35.2004 1.33936 34.8599 1.19809 34.6088 0.946918C34.3577 0.69574 34.2165 0.355177 34.2162 0L32.4506 0C32.4501 0.355155 32.3088 0.695621 32.0577 0.946754C31.8066 1.19789 31.4661 1.33919 31.1109 1.33969C30.7558 1.33927 30.4154 1.19798 30.1643 0.946807C29.9133 0.695639 29.7721 0.355123 29.7719 0L28.0063 0C28.006 0.355177 27.8648 0.69574 27.6137 0.946918C27.3626 1.19809 27.0221 1.33936 26.6669 1.33969C26.3118 1.33927 25.9713 1.19798 25.7203 0.946807C25.4692 0.695639 25.3281 0.355123 25.3278 0L23.5622 0C23.5617 0.355209 23.4203 0.695723 23.1691 0.946864C22.9179 1.19801 22.5774 1.33927 22.2222 1.33969C21.8671 1.33927 21.5266 1.19798 21.2756 0.946807C21.0245 0.695639 20.8834 0.355123 20.8831 0L19.1175 0C19.1173 0.355123 18.9761 0.695639 18.7251 0.946807C18.474 1.19798 18.1336 1.33927 17.7784 1.33969C17.4233 1.33936 17.0827 1.19809 16.8316 0.946918C16.5805 0.69574 16.4393 0.355177 16.4391 0L14.6728 0C14.6726 0.355123 14.5314 0.695639 14.2804 0.946807C14.0293 1.19798 13.6889 1.33927 13.3337 1.33969C12.9786 1.33927 12.6382 1.19798 12.3871 0.946807C12.1361 0.695639 11.9949 0.355123 11.9947 0L10.2291 0C10.2288 0.355177 10.0876 0.69574 9.83651 0.946918C9.58539 1.19809 9.24486 1.33936 8.88969 1.33969C8.53453 1.33919 8.19407 1.19789 7.94293 0.946754C7.6918 0.695621 7.5505 0.355155 7.55 0L5.78438 0C5.78413 0.355123 5.64299 0.695639 5.39194 0.946807C5.14088 1.19798 4.80044 1.33927 4.44531 1.33969C4.09014 1.33936 3.74961 1.19809 3.49849 0.946918C3.24737 0.69574 3.10619 0.355177 3.10594 0L1.33906 0ZM10.9522 5.88625H28.4381L27.3219 11.1312H15.1562L14.115 16.005H34.0747L33.2191 19.5022L22.5456 29.8813C23.5131 30.03 24.4434 30.2537 25.4475 30.2537C27.8894 30.2537 30.6969 29.5094 32.5944 28.7284L31.62 33.3041C28.8294 34.6434 27.1184 34.755 25.4475 34.755C23.625 34.755 21.8763 34.1594 20.0903 34.1594C19.0856 34.1594 17.6347 34.2344 16.7419 34.8294L14.8075 31.4066L25.8184 20.5066H13.1469L10.7294 31.8534H5.44625L10.9522 5.88594V5.88625Z" fill="#F7F7F7"/>
</g>
<defs>
<clipPath id="clip0_739_2475">
<rect width="40" height="40" fill="white"/>
</clipPath>
</defs>
</svg>
