<svg width="40" height="40" viewBox="0 0 40 40" fill="none" xmlns="http://www.w3.org/2000/svg">
<g clip-path="url(#clip0_750_2348)">
<path d="M7.48382 19.9507L18.6206 8.81553C18.7294 8.71428 18.8159 8.5914 18.8745 8.45478C18.933 8.31816 18.9624 8.17081 18.9606 8.02219V1.3971C18.955 1.1751 18.8862 0.959313 18.7622 0.775086C18.6382 0.590859 18.4642 0.445848 18.2606 0.357091C18.0545 0.273253 17.8283 0.251937 17.6102 0.295802C17.392 0.339666 17.1916 0.44677 17.0339 0.60376L2.33376 15.3223C0.767069 16.889 0.0203932 18.4056 0.000392936 19.9973C-0.0196073 21.589 0.723735 23.0807 2.26709 24.6207L17.0306 39.3876C17.132 39.4961 17.2549 39.5822 17.3916 39.6405C17.5282 39.6988 17.6754 39.7279 17.8239 39.7259C17.9799 39.7325 18.1333 39.6841 18.2573 39.5892C18.4639 39.5038 18.6405 39.3591 18.7651 39.1735C18.8897 38.9878 18.9565 38.7695 18.9573 38.5459V31.8791C18.9495 31.581 18.8279 31.2971 18.6173 31.0858L7.48382 19.9507ZM3.08376 22.1507C2.51709 21.4007 2.24709 20.6973 2.24709 20.0173C2.26709 19.0673 2.81376 18.0473 3.92544 16.934L16.6923 4.1638V7.59218L4.92545 19.359C4.10285 20.1337 3.47226 21.0896 3.08376 22.1507ZM16.6939 35.8259L5.94213 25.0757C5.89508 25.0052 5.8427 24.9383 5.78547 24.8757C5.44546 24.5307 4.42545 23.5107 5.94213 21.6074L16.6923 32.3558L16.6939 35.8259ZM22.9707 0.627094C22.8149 0.468304 22.6152 0.359672 22.3972 0.315129C22.1793 0.270587 21.953 0.292163 21.7473 0.377091C21.5401 0.462055 21.3627 0.6065 21.2376 0.792191C21.1124 0.977882 21.045 1.1965 21.044 1.42044V8.11219C21.0507 8.41219 21.1707 8.69553 21.384 8.90553L32.5191 20.039L21.384 31.1758C21.2752 31.2771 21.1887 31.3999 21.1302 31.5366C21.0716 31.6732 21.0423 31.8205 21.044 31.9691V38.5692C21.0441 38.7924 21.1099 39.0105 21.2331 39.1965C21.3564 39.3825 21.5316 39.5281 21.7371 39.6152C21.9425 39.7023 22.169 39.727 22.3884 39.6862C22.6077 39.6454 22.8103 39.541 22.9707 39.3859L37.6659 24.6907C39.2326 23.124 39.9809 21.6074 39.9992 20.0173C40.0276 18.4306 39.2775 16.934 37.7325 15.3923L22.9707 0.627094ZM23.3107 7.63551V4.16714L34.0625 14.9139C34.108 14.9873 34.1603 15.055 34.2192 15.1173C34.5592 15.4573 35.5792 16.479 34.0625 18.384L23.314 7.63385L23.3107 7.63551ZM36.0558 23.0807L23.289 35.8492V32.4492L35.0558 20.654C35.8735 19.8761 36.5028 18.9219 36.8959 17.864C37.4625 18.614 37.7359 19.3173 37.7359 19.9973C37.7125 20.9473 37.1692 21.9474 36.0558 23.0807ZM28.3457 20.924H11.5005C11.2724 20.924 11.0537 20.8334 10.8924 20.6721C10.7311 20.5108 10.6405 20.2921 10.6405 20.064V19.974C10.6405 19.4973 11.0239 19.1107 11.5005 19.1107H28.3507C28.5795 19.1115 28.7985 19.2028 28.9603 19.3645C29.122 19.5262 29.2132 19.7453 29.2141 19.974V20.064C29.2098 20.2913 29.1174 20.5081 28.9563 20.6685C28.7952 20.829 28.5781 20.9206 28.3507 20.924H28.3457ZM25.9457 16.684V16.7773C25.9457 16.8908 25.9233 17.0032 25.8796 17.108C25.836 17.2127 25.772 17.3078 25.6915 17.3878C25.6109 17.4677 25.5153 17.5309 25.4102 17.5738C25.3051 17.6166 25.1925 17.6382 25.079 17.6373H14.7372C14.624 17.6377 14.5118 17.6158 14.4071 17.5728C14.3024 17.5298 14.2072 17.4665 14.127 17.3866C14.0468 17.3067 13.9831 17.2117 13.9397 17.1072C13.8963 17.0026 13.8739 16.8905 13.8739 16.7773V16.684C13.8739 16.209 14.2606 15.8223 14.7372 15.8223H25.079C25.5557 15.8223 25.939 16.209 25.939 16.684H25.9424H25.9457ZM22.7457 13.3723V13.4623C22.7461 13.5756 22.7241 13.6879 22.681 13.7928C22.6379 13.8976 22.5745 13.9929 22.4944 14.0731C22.4143 14.1534 22.3191 14.217 22.2144 14.2603C22.1096 14.3036 21.9974 14.3258 21.884 14.3256H17.7773C17.6641 14.3256 17.552 14.3032 17.4474 14.2598C17.3428 14.2164 17.2479 14.1527 17.168 14.0725C17.0881 13.9923 17.0248 13.8971 16.9818 13.7924C16.9388 13.6877 16.9168 13.5755 16.9173 13.4623V13.3723C16.9173 12.8956 17.3039 12.5122 17.7773 12.5122H21.884C21.9973 12.5109 22.1097 12.5322 22.2147 12.575C22.3196 12.6177 22.415 12.681 22.4951 12.7611C22.5752 12.8413 22.6385 12.9366 22.6813 13.0416C22.724 13.1465 22.7454 13.2589 22.744 13.3723H22.7457ZM21.884 25.7774C22.3573 25.7774 22.744 26.1641 22.744 26.6407V26.7307C22.744 26.8437 22.7218 26.9555 22.6785 27.0599C22.6353 27.1642 22.572 27.259 22.4921 27.3389C22.4123 27.4187 22.3175 27.4821 22.2131 27.5253C22.1088 27.5685 21.9969 27.5908 21.884 27.5908H17.7773C17.5492 27.5908 17.3304 27.5002 17.1692 27.3389C17.0079 27.1776 16.9173 26.9588 16.9173 26.7307V26.6407C16.9173 26.1641 17.3039 25.7774 17.7773 25.7774H21.884ZM25.0807 24.2574H14.7389C14.6257 24.2578 14.5135 24.2359 14.4088 24.1929C14.304 24.1499 14.2088 24.0866 14.1286 24.0067C14.0484 23.9268 13.9848 23.8318 13.9413 23.7273C13.8979 23.6227 13.8756 23.5106 13.8756 23.3974V23.3074C13.8764 23.0787 13.9677 22.8596 14.1294 22.6979C14.2911 22.5361 14.5102 22.4449 14.7389 22.444H25.0807C25.5574 22.444 25.9407 22.8307 25.9407 23.3074V23.3974C25.9407 23.6255 25.8501 23.8442 25.6888 24.0055C25.5275 24.1668 25.3088 24.2574 25.0807 24.2574Z" fill="#F7F7F7"/>
</g>
<defs>
<clipPath id="clip0_750_2348">
<rect width="40" height="39" fill="white" transform="translate(0 0.5)"/>
</clipPath>
</defs>
</svg>
