<svg width="50" height="30" viewBox="0 0 50 30" fill="none" xmlns="http://www.w3.org/2000/svg">
<path d="M25 1.25525C10.9812 1.25525 0 7.29238 0 15C0 22.7077 10.9812 28.7448 25 28.7448C39.0187 28.7448 50 22.7077 50 15C50 7.29238 39.0187 1.25525 25 1.25525ZM22.4042 5.48442H25.1333L24.2667 9.71358H26.7042C28.25 9.71358 29.2875 9.9335 29.8792 10.4812C30.4562 11.0225 30.6312 11.9106 30.4 13.1202L29.3167 18.1719H26.5417L27.5396 13.5008C27.659 12.8566 27.6125 12.416 27.4 12.1792C27.1896 11.9445 26.725 11.8282 26.0292 11.8282H23.8437L22.525 18.1719H19.7917L22.4042 5.48442ZM10.4167 9.71358H15.9708C18.6187 9.71358 20.2229 11.5152 19.5958 14.2028C18.8667 17.3261 16.9167 18.1719 13.325 18.1719H11.6083L11.0646 21.3438H8.30417L10.4167 9.71358ZM32.2917 9.71358H37.8458C40.4937 9.71358 42.0979 11.5152 41.4708 14.2028C40.7417 17.3261 38.7896 18.1719 35.2 18.1719H33.4833L32.9396 21.3438H30.1792L32.2917 9.71358ZM12.7812 11.8282L11.9958 16.0573H13.7771C15.3187 16.0573 16.7521 15.8797 16.9917 13.5473C17.0812 12.6423 16.7104 11.8282 14.9292 11.8282H12.7812ZM34.6562 11.8282L33.8708 16.0573H35.6521C37.1938 16.0573 38.6271 15.8797 38.8667 13.5473C38.9562 12.6423 38.5875 11.8282 36.8042 11.8282H34.6562Z" fill="#F7F7F7"/>
</svg>
