<svg width="40" height="40" viewBox="0 0 40 40" fill="none" xmlns="http://www.w3.org/2000/svg">
<g clip-path="url(#clip0_739_2471)">
<path d="M2.84 20C2.84 17.52 3.38 15.16 4.32 13L12.52 35.44C9.61641 34.0389 7.16744 31.8465 5.45494 29.115C3.74244 26.3835 2.83602 23.2239 2.84 20ZM31.58 19.14C31.58 20.6 31 22.3 30.28 24.68L28.56 30.4L22.36 12L24.32 11.8C25.26 11.68 25.14 10.32 24.22 10.38C24.22 10.38 21.44 10.6 19.64 10.6L15.12 10.38C14.2 10.32 14.1 11.74 15 11.8L16.82 12L19.5 19.28L15.74 30.54L9.48 12L11.46 11.8C12.38 11.68 12.26 10.32 11.34 10.38C11.34 10.38 8.56 10.6 6.76 10.6L5.66 10.58C8.74 5.92 14 2.84 20 2.84C24.46 2.84 28.54 4.56 31.58 7.34H31.36C29.68 7.34 28.48 8.8 28.48 10.38C28.48 11.8 29.3 13 30.16 14.4C30.82 15.54 31.58 17 31.58 19.14ZM20.3 21.5L25.58 35.94L25.7 36.18C23.92 36.82 22 37.16 20 37.16C18.32 37.16 16.7 36.92 15.16 36.46L20.3 21.5ZM35.06 11.76C36.4427 14.286 37.165 17.1203 37.16 20C37.16 26.32 33.72 31.86 28.62 34.82L33.86 19.68C34.84 17.24 35.18 15.28 35.18 13.54L35.06 11.76ZM20 0C22.6264 0 25.2272 0.517315 27.6537 1.52241C30.0802 2.5275 32.285 4.00069 34.1421 5.85786C35.9993 7.71504 37.4725 9.91982 38.4776 12.3463C39.4827 14.7728 40 17.3736 40 20C40 25.3043 37.8929 30.3914 34.1421 34.1421C30.3914 37.8929 25.3043 40 20 40C17.3736 40 14.7728 39.4827 12.3463 38.4776C9.91982 37.4725 7.71504 35.9993 5.85786 34.1421C2.10714 30.3914 0 25.3043 0 20C0 14.6957 2.10714 9.60859 5.85786 5.85786C9.60859 2.10714 14.6957 0 20 0ZM20 39.08C30.52 39.08 39.08 30.52 39.08 20C39.08 9.48 30.52 0.92 20 0.92C9.48 0.92 0.92 9.48 0.92 20C0.92 30.52 9.48 39.08 20 39.08Z" fill="#F7F7F7"/>
</g>
<defs>
<clipPath id="clip0_739_2471">
<rect width="40" height="40" fill="white"/>
</clipPath>
</defs>
</svg>
