<svg width="40" height="40" viewBox="0 0 40 40" fill="none" xmlns="http://www.w3.org/2000/svg">
<g clip-path="url(#clip0_739_2434)">
<mask id="mask0_739_2434" style="mask-type:luminance" maskUnits="userSpaceOnUse" x="0" y="0" width="40" height="40">
<path d="M0 0H40V40H0V0Z" fill="white"/>
</mask>
<g mask="url(#mask0_739_2434)">
<path d="M8.4668 0H10.2701V1.78167H11.9201V0H13.7235V5.39333H11.9201V3.58833H10.2701V5.39333H8.46846L8.4668 0ZM16.0935 1.78833H14.5068V0H19.4851V1.78833H17.8968V5.39333H16.0935V1.78833ZM20.2751 0H22.1551L23.3118 1.895L24.4668 0H26.3468V5.39333H24.5518V2.72L23.3118 4.63833H23.2801L22.0385 2.72167V5.39333H20.2751V0ZM27.2435 0H29.0485V3.61167H31.5818V5.395H27.2435V0Z" fill="#F7F7F7"/>
<path fill-rule="evenodd" clip-rule="evenodd" d="M8.41 36.7867L5 7.86169H35L31.5883 36.7834L19.9833 40L8.41 36.7867ZM15.305 20.9534L14.9817 17.32H28.5567L28.8733 13.7734H11.1067L12.0633 24.5017H24.3583L23.9467 29.1017L19.99 30.1717H19.9867L16.0367 29.105L15.7833 26.2767H12.22L12.7167 31.8467L19.9833 33.8634L27.2617 31.8467L28.1483 21.9067L28.235 20.955L15.305 20.9534Z" fill="#F7F7F7"/>
</g>
</g>
<defs>
<clipPath id="clip0_739_2434">
<rect width="40" height="40" fill="white"/>
</clipPath>
</defs>
</svg>
