<svg width="40" height="40" viewBox="0 0 40 40" fill="none" xmlns="http://www.w3.org/2000/svg">
<g clip-path="url(#clip0_2027_336)">
<path d="M7.08313 0.5C3.16656 0.5 0 3.66687 0 7.58375V32.4163C0 36.3331 3.16656 39.5 7.08313 39.5H32.9169C36.8334 39.5 40 36.3331 40 32.4163V7.58375C40 3.66687 36.8334 0.5 32.9169 0.5H7.08313ZM14.3334 10.4169C15.7 10.4169 16.8334 10.5831 17.7666 10.9331C18.6033 11.2174 19.3662 11.6845 20 12.3003C20.537 12.8391 20.9519 13.487 21.2169 14.2C21.4669 14.9 21.5997 15.6166 21.5997 16.3666C21.5997 17.7999 21.2664 18.9832 20.5997 19.9166C19.9334 20.8497 19.0003 21.55 17.9169 21.95C16.7834 22.3669 15.5334 22.5166 14.1669 22.5166C13.7669 22.5166 13.4997 22.5166 13.3331 22.5C13.1666 22.4834 12.9331 22.4834 12.6166 22.4834V27.8334C12.6331 27.95 12.55 28.0503 12.4334 28.0669H9.2C9.06687 28.0669 9.00062 27.9997 9.00062 27.8497V10.7C9.00062 10.5834 9.05062 10.5163 9.16719 10.5163C9.45062 10.5163 9.71719 10.5162 10.1003 10.5C10.5003 10.4831 10.9169 10.4838 11.3669 10.4669C11.8169 10.4503 12.3003 10.45 12.8169 10.4334C13.3338 10.4166 13.8334 10.4169 14.3334 10.4169ZM14.7053 13.6994C14.6202 13.6978 14.5351 13.698 14.45 13.7C14.0169 13.7 13.6334 13.7003 13.3166 13.7172C12.9834 13.7003 12.7503 13.7169 12.6338 13.7334V19.3334C12.8669 19.3503 13.0831 19.3666 13.2831 19.3666H14.1669C14.8169 19.3666 15.4669 19.2666 16.0834 19.0666C16.6169 18.9166 17.0834 18.5997 17.45 18.1831C17.8 17.7663 17.9669 17.2 17.9669 16.4666C17.9822 15.9459 17.8493 15.4315 17.5837 14.9834C17.3003 14.5503 16.9 14.2166 16.4166 14.0334C15.8769 13.8147 15.2991 13.7109 14.7053 13.6994ZM28.6834 14.5503C29.3669 14.5503 30.0669 14.5997 30.75 14.6997C31.25 14.7663 31.7331 14.9003 32.1831 15.0838C32.25 15.1003 32.3166 15.1666 32.3497 15.2331C32.3666 15.2997 32.3834 15.3666 32.3834 15.4331V18.15C32.3836 18.1823 32.3762 18.2143 32.3617 18.2432C32.3473 18.2721 32.3263 18.2973 32.3003 18.3166C32.1503 18.35 32.0669 18.35 32.0003 18.3166C31.5003 18.05 30.9666 17.8669 30.3997 17.7503C29.7831 17.6169 29.1666 17.5331 28.5334 17.5331C28.2 17.5163 27.8497 17.5669 27.5331 17.65C27.3163 17.7 27.1331 17.8169 27.0166 17.9834C26.9334 18.1169 26.8834 18.2834 26.8834 18.4334C26.8834 18.5834 26.9503 18.7334 27.0503 18.8666C27.2003 19.05 27.4 19.2003 27.6166 19.3172C28.0031 19.5169 28.3979 19.7001 28.8 19.8662C29.7 20.1662 30.5666 20.5834 31.3666 21.0834C31.9166 21.4334 32.3666 21.9003 32.6831 22.4669C32.9513 22.9984 33.0831 23.5883 33.0669 24.1834C33.0804 24.9713 32.8534 25.7445 32.4163 26.4C31.9515 27.0652 31.303 27.5806 30.55 27.8831C29.7331 28.2331 28.7331 28.4166 27.5331 28.4166C26.7663 28.4166 26.0169 28.35 25.2669 28.2C24.679 28.0984 24.1073 27.9191 23.5669 27.6666C23.4503 27.6 23.3666 27.4831 23.3831 27.3497V24.45C23.3831 24.4 23.3997 24.3331 23.4497 24.3C23.4997 24.2666 23.5497 24.2838 23.5997 24.3169C24.2417 24.6956 24.9391 24.9712 25.6666 25.1338C26.3 25.3003 26.9669 25.3834 27.6338 25.3834C28.2669 25.3834 28.7169 25.3 29.0169 25.15C29.2834 25.0334 29.4666 24.75 29.4666 24.45C29.4666 24.2169 29.3334 23.9997 29.0666 23.7828C28.8 23.5663 28.25 23.3166 27.4334 23C26.5955 22.7049 25.7998 22.3015 25.0666 21.8C24.5443 21.4279 24.1116 20.9439 23.8 20.3834C23.534 19.857 23.4024 19.273 23.4169 18.6834C23.4169 17.9669 23.6166 17.2834 23.9831 16.6669C24.3997 16.0003 25.0169 15.4669 25.7337 15.1338C26.5169 14.7338 27.4997 14.5503 28.6834 14.5503Z" fill="#F7F7F7"/>
</g>
<defs>
<clipPath id="clip0_2027_336">
<rect width="40" height="40" fill="white"/>
</clipPath>
</defs>
</svg>
