<svg width="153" height="151" viewBox="0 0 153 151" fill="none" xmlns="http://www.w3.org/2000/svg">
<circle cx="77" cy="91" r="55" fill="#C8EF9B" fill-opacity="0.3"/>
<g clip-path="url(#clip0_839_2699)">
<path d="M79.8363 9.17968V1.46875V9.17968ZM79.8363 23.5V16.8906V23.5ZM79.8363 45.5312C93.1811 45.5312 96.5173 35.5951 96.5173 23.5C96.5173 11.4048 93.1811 1.46875 79.8363 1.46875C66.4915 1.46875 63.1553 11.4048 63.1553 23.5C63.1553 35.5951 66.4915 45.5312 79.8363 45.5312Z" fill="#EFF4EF"/>
<path d="M79.8363 9.17968V1.46875M79.8363 1.46875C93.1811 1.46875 96.5173 11.4048 96.5173 23.5C96.5173 35.5951 93.1811 45.5312 79.8363 45.5312C66.4915 45.5312 63.1553 35.5951 63.1553 23.5C63.1553 11.4048 66.4915 1.46875 79.8363 1.46875ZM79.8363 23.5V16.8906" stroke="black" stroke-width="2" stroke-linecap="round" stroke-linejoin="round"/>
<path d="M63.1553 23.5H96.5174M60.9312 4.0398L60.0838 1.46875M58.7715 9.32729L56.4829 10.2812M83.1726 12.4844C83.1726 11.4577 83.1726 10.9444 83.0035 10.539C82.7773 10.0003 82.3446 9.5724 81.8003 9.34932C81.391 9.17968 80.8728 9.17968 79.8364 9.17968C78.7999 9.17968 78.2817 9.17968 77.8724 9.34712C77.3286 9.5712 76.8966 9.99985 76.6714 10.539C76.5002 10.9444 76.5002 11.4577 76.5002 12.4844V13.5859C76.5002 14.6126 76.5002 15.1259 76.6692 15.5313C76.8954 16.07 77.3281 16.4979 77.8724 16.721C78.2817 16.8906 78.7999 16.8906 79.8364 16.8906C80.8728 16.8906 81.391 16.8906 81.8003 16.7232C82.3442 16.4991 82.7761 16.0705 83.0013 15.5313C83.1726 15.1259 83.1726 14.6126 83.1726 13.5859V12.4844Z" stroke="black" stroke-width="2" stroke-linecap="round" stroke-linejoin="round"/>
</g>
<g clip-path="url(#clip1_839_2699)">
<path d="M25.4531 56.906H9.84375C8.72487 56.906 7.65181 57.3505 6.86064 58.1416C6.06947 58.9328 5.625 60.0059 5.625 61.1248V94.8747C5.625 95.9936 6.06947 97.0667 6.86064 97.8578C7.65181 98.649 8.72487 99.0935 9.84375 99.0935H35.1562C36.2751 99.0935 37.3482 98.649 38.1394 97.8578C38.9305 97.0667 39.375 95.9936 39.375 94.8747V79.2654M1.40625 65.3435H9.84375H1.40625ZM1.40625 73.781H9.84375H1.40625ZM1.40625 82.2185H9.84375H1.40625ZM1.40625 90.656H9.84375H1.40625Z" fill="#EFF4EF"/>
<path d="M25.4531 56.906H9.84375C8.72487 56.906 7.65181 57.3505 6.86064 58.1416C6.06947 58.9328 5.625 60.0059 5.625 61.1248V94.8747C5.625 95.9936 6.06947 97.0667 6.86064 97.8578C7.65181 98.649 8.72487 99.0935 9.84375 99.0935H35.1562C36.2751 99.0935 37.3482 98.649 38.1394 97.8578C38.9305 97.0667 39.375 95.9936 39.375 94.8747V79.2654M1.40625 65.3435H9.84375M1.40625 73.781H9.84375M1.40625 82.2185H9.84375M1.40625 90.656H9.84375" stroke="black" stroke-width="2" stroke-linecap="round" stroke-linejoin="round"/>
<path d="M42.2816 64.5548C43.1219 63.7145 43.5939 62.5748 43.5939 61.3865C43.5939 60.1982 43.1219 59.0585 42.2816 58.2182C41.4413 57.3779 40.3016 56.9059 39.1133 56.9059C37.925 56.9059 36.7853 57.3779 35.945 58.2182L25.377 68.7904C24.8755 69.2916 24.5084 69.9112 24.3097 70.5918L22.5441 76.6457C22.4912 76.8272 22.488 77.0196 22.535 77.2028C22.5819 77.3859 22.6772 77.5531 22.8109 77.6868C22.9446 77.8205 23.1117 77.9158 23.2949 77.9627C23.478 78.0097 23.6704 78.0065 23.852 77.9535L29.9059 76.188C30.5865 75.9892 31.206 75.6222 31.7073 75.1206L42.2816 64.5548Z" fill="#EFF4EF" stroke="black" stroke-width="2" stroke-linecap="round" stroke-linejoin="round"/>
</g>
<g clip-path="url(#clip2_839_2699)">
<path d="M134.312 56.4375H125.687C118.615 56.4375 115.081 56.4375 112.575 58.1927C111.648 58.8419 110.842 59.6482 110.193 60.5753C108.437 63.0788 108.438 66.615 108.438 73.6875C108.438 80.76 108.437 84.2941 110.193 86.7997C110.842 87.7268 111.648 88.5332 112.575 89.1823C115.079 90.9375 118.615 90.9375 125.687 90.9375H134.312C141.385 90.9375 144.919 90.9375 147.425 89.1823C148.352 88.5332 149.158 87.7268 149.807 86.7997C151.562 84.2963 151.562 80.76 151.562 73.6875C151.562 66.615 151.562 63.0809 149.807 60.5753C149.158 59.6482 148.352 58.8419 147.425 58.1927C144.921 56.4375 141.385 56.4375 134.312 56.4375Z" fill="#EFF4EF" stroke="black" stroke-width="2" stroke-linecap="round" stroke-linejoin="round"/>
<path d="M138.625 69.375L141.271 71.6542C142.381 72.6137 142.938 73.0924 142.938 73.6875C142.938 74.2826 142.381 74.7613 141.271 75.7208L138.625 78M121.375 69.375L118.729 71.6542C117.619 72.6137 117.062 73.0924 117.062 73.6875C117.062 74.2826 117.619 74.7613 118.729 75.7208L121.375 78M132.156 67.2188L127.844 80.1562L132.156 67.2188ZM135.727 99.5625L134.821 98.659C133.828 97.6664 133.173 96.3863 132.949 95.0003C132.724 93.6143 132.942 92.1928 133.571 90.9375M123.531 99.5625L124.437 98.659C125.43 97.6664 126.085 96.3863 126.31 95.0003C126.534 93.6143 126.316 92.1928 125.688 90.9375M119.219 99.5625H140.781H119.219Z" fill="#EFF4EF"/>
<path d="M138.625 69.375L141.271 71.6542C142.381 72.6137 142.938 73.0924 142.938 73.6875C142.938 74.2826 142.381 74.7613 141.271 75.7208L138.625 78M121.375 69.375L118.729 71.6542C117.619 72.6137 117.062 73.0924 117.062 73.6875C117.062 74.2826 117.619 74.7613 118.729 75.7208L121.375 78M132.156 67.2188L127.844 80.1562M135.727 99.5625L134.821 98.659C133.828 97.6664 133.173 96.3863 132.949 95.0003C132.724 93.6143 132.942 92.1928 133.571 90.9375M123.531 99.5625L124.437 98.659C125.43 97.6664 126.085 96.3863 126.31 95.0003C126.534 93.6143 126.316 92.1928 125.688 90.9375M119.219 99.5625H140.781" stroke="black" stroke-width="2" stroke-linecap="round" stroke-linejoin="round"/>
</g>
<path d="M82.4948 141.572H89.6134C94.7651 141.572 98.9801 138.81 98.9801 133.666C98.9801 128.522 94.0158 125.961 89.9881 125.76C89.1554 117.715 83.3378 112.822 76.5001 112.822C70.0371 112.822 65.8745 117.153 64.5107 121.447C58.8907 121.986 54.02 125.597 54.02 131.51C54.02 137.422 59.078 141.572 65.26 141.572H70.5054" fill="#EFF4EF"/>
<path d="M82.4948 141.572H89.6134C94.7651 141.572 98.9801 138.81 98.9801 133.666C98.9801 128.522 94.0158 125.961 89.9881 125.76C89.1554 117.715 83.3378 112.822 76.5001 112.822C70.0371 112.822 65.8745 117.153 64.5107 121.447C58.8907 121.986 54.02 125.597 54.02 131.51C54.02 137.422 59.078 141.572 65.26 141.572H70.5054" stroke="black" stroke-width="2" stroke-linecap="round" stroke-linejoin="round"/>
<path d="M83.5 131.99L76.5 126L69.5 131.99M76.5 150V127.498" stroke="black" stroke-width="2" stroke-linecap="round" stroke-linejoin="round"/>
<path d="M47.4867 45.9199C47.5517 45.5108 47.2727 45.1265 46.8636 45.0616L40.1972 44.003C39.7881 43.938 39.4038 44.217 39.3388 44.6261C39.2739 45.0352 39.5528 45.4195 39.9619 45.4844L45.8877 46.4254L44.9467 52.3511C44.8817 52.7602 45.1607 53.1445 45.5698 53.2095C45.9789 53.2744 46.3632 52.9955 46.4281 52.5864L47.4867 45.9199ZM32.8214 62.3744C36.4289 56.112 41.33 50.6608 47.1866 46.4092L46.3054 45.1953C40.2778 49.571 35.2342 55.1808 31.5216 61.6256L32.8214 62.3744Z" fill="black"/>
<path d="M121.687 62.9617C122.083 63.083 122.503 62.8602 122.624 62.4641L124.6 56.0099C124.721 55.6138 124.499 55.1944 124.103 55.0732C123.707 54.9519 123.287 55.1747 123.166 55.5707L121.409 61.3079L115.672 59.5513C115.276 59.4301 114.857 59.6529 114.736 60.0489C114.614 60.445 114.837 60.8644 115.233 60.9856L121.687 62.9617ZM107.434 46.1491C113.133 50.593 117.85 56.205 121.245 62.5964L122.569 61.8927C119.075 55.3148 114.222 49.5396 108.356 44.9662L107.434 46.1491Z" fill="black"/>
<path d="M106.628 137.325C106.564 137.734 106.843 138.118 107.252 138.183L113.918 139.242C114.327 139.307 114.711 139.028 114.776 138.619C114.841 138.209 114.562 137.825 114.153 137.76L108.228 136.819L109.169 130.893C109.233 130.484 108.955 130.1 108.545 130.035C108.136 129.97 107.752 130.249 107.687 130.658L106.628 137.325ZM121.294 120.87C117.686 127.133 112.785 132.584 106.929 136.835L107.81 138.049C113.837 133.674 118.881 128.064 122.594 121.619L121.294 120.87Z" fill="black"/>
<defs>
<clipPath id="clip0_839_2699">
<rect width="43" height="47" fill="white" transform="translate(55)"/>
</clipPath>
<clipPath id="clip1_839_2699">
<rect width="45" height="45" fill="white" transform="translate(0 55.5)"/>
</clipPath>
<clipPath id="clip2_839_2699">
<rect width="46" height="46" fill="white" transform="translate(107 55)"/>
</clipPath>
</defs>
</svg>
