<svg width="39" height="40" viewBox="0 0 39 40" fill="none" xmlns="http://www.w3.org/2000/svg">
<g clip-path="url(#clip0_739_2451)">
<mask id="mask0_739_2451" style="mask-type:luminance" maskUnits="userSpaceOnUse" x="0" y="0" width="39" height="40">
<path d="M27.548 39.2863C27.8571 39.4078 28.1877 39.4639 28.5193 39.4511C28.8508 39.4382 29.1762 39.3568 29.4751 39.2117L37.4733 35.3329C37.8853 35.133 38.2328 34.82 38.4761 34.4298C38.7193 34.0396 38.8483 33.5882 38.8482 33.1274V6.82604C38.8483 6.36528 38.7193 5.91386 38.476 5.52373C38.2328 5.13359 37.8852 4.82058 37.4733 4.62069L29.4753 0.74173C29.0233 0.522616 28.515 0.450485 28.0206 0.535319C27.5262 0.620153 27.0701 0.857757 26.7156 1.21526L11.404 15.2944L4.73437 10.1919C4.43352 9.96169 4.06221 9.84493 3.68487 9.86184C3.30754 9.87876 2.94798 10.0283 2.66859 10.2844L0.529528 12.2457C-0.175823 12.8922 -0.176585 14.0106 0.5277 14.6583L6.31173 19.9767L0.5277 25.295C-0.176585 25.9428 -0.175823 27.0611 0.529528 27.7078L2.66859 29.6688C2.94796 29.925 3.30751 30.0746 3.68485 30.0915C4.06218 30.1084 4.4335 29.9917 4.73437 29.7616L11.404 24.6589L26.7156 38.738C26.9523 38.977 27.2358 39.1637 27.548 39.2863ZM29.1421 11.0882L17.5241 19.9767L29.1421 28.865V11.0882Z" fill="white"/>
</mask>
<g mask="url(#mask0_739_2451)">
<path d="M37.4971 4.62675L29.4926 0.742413C29.0406 0.523053 28.532 0.450732 28.0374 0.535457C27.5428 0.620182 27.0865 0.857764 26.7317 1.21533L0.527986 25.2951C-0.176756 25.9429 -0.175842 27.0611 0.529814 27.7078L2.67024 29.6689C2.94987 29.9251 3.30964 30.0747 3.6872 30.0916C4.06475 30.1086 4.43629 29.9918 4.7374 29.7616L36.2927 5.63446C37.3513 4.82513 38.8718 5.58609 38.8718 6.92529V6.83163C38.8718 6.37097 38.7428 5.91966 38.4996 5.52962C38.2564 5.13957 37.9089 4.82662 37.4971 4.62675Z" fill="#CACACA"/>
</g>
<mask id="mask1_739_2451" style="mask-type:luminance" maskUnits="userSpaceOnUse" x="0" y="0" width="39" height="40">
<path d="M27.548 39.2863C27.8571 39.4078 28.1877 39.4639 28.5193 39.4511C28.8508 39.4382 29.1762 39.3568 29.4751 39.2117L37.4733 35.3329C37.8853 35.133 38.2328 34.82 38.4761 34.4298C38.7193 34.0396 38.8483 33.5882 38.8482 33.1274V6.82604C38.8483 6.36528 38.7193 5.91386 38.476 5.52373C38.2328 5.13359 37.8852 4.82058 37.4733 4.62069L29.4753 0.74173C29.0233 0.522616 28.515 0.450485 28.0206 0.535319C27.5262 0.620153 27.0701 0.857757 26.7156 1.21526L11.404 15.2944L4.73437 10.1919C4.43352 9.96169 4.06221 9.84493 3.68487 9.86184C3.30754 9.87876 2.94798 10.0283 2.66859 10.2844L0.529528 12.2457C-0.175823 12.8922 -0.176585 14.0106 0.5277 14.6583L6.31173 19.9767L0.5277 25.295C-0.176585 25.9428 -0.175823 27.0611 0.529528 27.7078L2.66859 29.6688C2.94796 29.925 3.30751 30.0746 3.68485 30.0915C4.06218 30.1084 4.4335 29.9917 4.73437 29.7616L11.404 24.6589L26.7156 38.738C26.9523 38.977 27.2358 39.1637 27.548 39.2863ZM29.1421 11.0882L17.5241 19.9767L29.1421 28.865V11.0882Z" fill="white"/>
</mask>
<g mask="url(#mask1_739_2451)">
<path d="M37.4971 35.326L29.4926 39.2104C29.0406 39.4296 28.5321 39.5019 28.0374 39.4172C27.5428 39.3325 27.0866 39.0949 26.7317 38.7375L0.527986 14.6577C-0.176756 14.0101 -0.175842 12.8917 0.529814 12.2451L2.67024 10.2839C2.94988 10.0277 3.30967 9.87814 3.68722 9.86123C4.06478 9.84432 4.43631 9.96109 4.7374 10.1913L36.2927 34.3183C37.3513 35.1277 38.8718 34.3667 38.8718 33.0274V33.1212C38.8718 33.5818 38.7428 34.0331 38.4996 34.4232C38.2564 34.8132 37.9089 35.1262 37.4971 35.326Z" fill="#E3E3E3"/>
</g>
<mask id="mask2_739_2451" style="mask-type:luminance" maskUnits="userSpaceOnUse" x="0" y="0" width="39" height="40">
<path d="M27.548 39.2863C27.8571 39.4078 28.1877 39.4639 28.5193 39.4511C28.8508 39.4382 29.1762 39.3568 29.4751 39.2117L37.4733 35.3329C37.8853 35.133 38.2328 34.82 38.4761 34.4298C38.7193 34.0396 38.8483 33.5882 38.8482 33.1274V6.82604C38.8483 6.36528 38.7193 5.91386 38.476 5.52373C38.2328 5.13359 37.8852 4.82058 37.4733 4.62069L29.4753 0.74173C29.0233 0.522616 28.515 0.450485 28.0206 0.535319C27.5262 0.620153 27.0701 0.857757 26.7156 1.21526L11.404 15.2944L4.73437 10.1919C4.43352 9.96169 4.06221 9.84493 3.68487 9.86184C3.30754 9.87876 2.94798 10.0283 2.66859 10.2844L0.529528 12.2457C-0.175823 12.8922 -0.176585 14.0106 0.5277 14.6583L6.31173 19.9767L0.5277 25.295C-0.176585 25.9428 -0.175823 27.0611 0.529528 27.7078L2.66859 29.6688C2.94796 29.925 3.30751 30.0746 3.68485 30.0915C4.06218 30.1084 4.4335 29.9917 4.73437 29.7616L11.404 24.6589L26.7156 38.738C26.9523 38.977 27.2358 39.1637 27.548 39.2863ZM29.1421 11.0882L17.5241 19.9767L29.1421 28.865V11.0882Z" fill="white"/>
</mask>
<g mask="url(#mask2_739_2451)">
<path d="M29.4673 39.2136C29.0151 39.4328 28.5065 39.505 28.0118 39.4202C27.5172 39.3354 27.0609 39.0978 26.7061 38.7402C27.602 39.643 29.1341 39.0035 29.1341 37.7263V2.23096C29.1341 0.953787 27.602 0.314279 26.7061 1.21727C27.0608 0.859637 27.5171 0.621968 28.0118 0.537135C28.5065 0.452302 29.0151 0.524499 29.4673 0.74374L37.4704 4.6227C37.8824 4.82248 38.2301 5.13545 38.4735 5.52559C38.7169 5.91574 38.846 6.3672 38.846 6.82805V33.1296C38.846 34.07 38.3113 34.9274 37.4704 35.3349L29.4673 39.2136Z" fill="#F7F7F7"/>
</g>
</g>
<defs>
<clipPath id="clip0_739_2451">
<rect width="39" height="39" fill="white" transform="translate(0 0.5)"/>
</clipPath>
</defs>
</svg>
