<svg width="36" height="36" viewBox="0 0 36 36" fill="none" xmlns="http://www.w3.org/2000/svg">
<g clip-path="url(#clip0_739_2444)">
<mask id="mask0_739_2444" style="mask-type:luminance" maskUnits="userSpaceOnUse" x="0" y="0" width="36" height="36">
<path d="M0 0H36V36H0V0Z" fill="white"/>
</mask>
<g mask="url(#mask0_739_2444)">
<path fill-rule="evenodd" clip-rule="evenodd" d="M0 0H36V36H0V0ZM27.5205 30.18C25.851 30.18 24.9075 29.31 24.183 28.125L21.4335 29.7225C22.4265 31.6845 24.456 33.1815 27.5985 33.1815C30.8115 33.1815 33.204 31.5135 33.204 28.467C33.204 25.6425 31.581 24.387 28.707 23.1525L27.861 22.791C26.409 22.161 25.7805 21.7515 25.7805 20.736C25.7805 19.9155 26.4105 19.287 27.4005 19.287C28.371 19.287 28.9965 19.6965 29.577 20.736L32.211 19.0455C31.0965 17.085 29.5515 16.3365 27.4005 16.3365C24.3795 16.3365 22.446 18.2685 22.446 20.8065C22.446 23.559 24.066 24.8625 26.508 25.902L27.354 26.265C28.8975 26.94 29.817 27.351 29.817 28.5105C29.817 29.4795 28.9215 30.18 27.5205 30.18ZM14.4105 30.1575C13.248 30.1575 12.7635 29.3625 12.2325 28.4175L9.4785 30.0855C10.2765 31.7745 11.8455 33.1755 14.553 33.1755C17.5515 33.1755 19.605 31.581 19.605 28.0785V16.5285H16.2225V28.0335C16.2225 29.724 15.5205 30.1575 14.409 30.1575" fill="#F7F7F7"/>
</g>
</g>
<defs>
<clipPath id="clip0_739_2444">
<rect width="36" height="36" fill="white"/>
</clipPath>
</defs>
</svg>
